<svg width="24" height="24" viewBox="0 0 24 24" fill="none" xmlns="http://www.w3.org/2000/svg">
<path d="M12.0254 6.00098C12.0319 6.0012 12.0384 6.00156 12.0449 6.00195C12.0839 6.00426 12.122 6.00954 12.1592 6.01758C12.1925 6.0248 12.2246 6.03607 12.2568 6.04785C12.2693 6.05242 12.2828 6.05437 12.2949 6.05957C12.314 6.06772 12.3311 6.08004 12.3496 6.08984C12.3734 6.10248 12.3977 6.11387 12.4199 6.12891C12.4588 6.15524 12.4959 6.18532 12.5303 6.21973L19.2803 12.9697C19.5732 13.2626 19.5732 13.7374 19.2803 14.0303C18.9874 14.3232 18.5126 14.3232 18.2197 14.0303L12.75 8.56055V21C12.75 21.4142 12.4142 21.75 12 21.75C11.5858 21.75 11.25 21.4142 11.25 21V8.56055L5.78027 14.0303C5.48738 14.3232 5.01262 14.3232 4.71973 14.0303C4.42683 13.7374 4.42683 13.2626 4.71973 12.9697L11.4697 6.21973L11.5264 6.16797C11.5366 6.15965 11.5481 6.15321 11.5586 6.14551C11.5741 6.13414 11.59 6.12345 11.6064 6.11328C11.6303 6.09849 11.6546 6.0851 11.6797 6.07324C11.6979 6.06462 11.7164 6.05697 11.7354 6.0498C11.7629 6.03942 11.7909 6.03144 11.8193 6.02441C11.8394 6.01944 11.8592 6.01309 11.8799 6.00977C11.8909 6.00799 11.902 6.00616 11.9131 6.00488C11.9416 6.00159 11.9706 6 12 6C12.0085 6 12.017 6.0007 12.0254 6.00098ZM20.25 3C20.6642 3 21 3.33579 21 3.75C21 4.16421 20.6642 4.5 20.25 4.5H3.75C3.33579 4.5 3 4.16421 3 3.75C3 3.33579 3.33579 3 3.75 3H20.25Z" fill="#333537"/>
</svg>
