<svg width="24" height="24" viewBox="0 0 24 24" fill="none" xmlns="http://www.w3.org/2000/svg">
<path d="M9.96973 4.71979C10.2626 4.4269 10.7374 4.4269 11.0303 4.71979C11.3231 5.01269 11.3232 5.48746 11.0303 5.78034L5.56055 11.2501H20.25C20.6642 11.2501 21 11.5859 21 12.0001C21 12.4142 20.6642 12.7501 20.25 12.7501H5.56055L11.0303 18.2198L11.082 18.2764C11.3223 18.571 11.3049 19.0057 11.0303 19.2803C10.7557 19.5549 10.3209 19.5724 10.0264 19.3321L9.96973 19.2803L3.21973 12.5303C3.18772 12.4983 3.15978 12.4637 3.13477 12.4278C3.10404 12.3837 3.07743 12.3365 3.05664 12.2862C3.03591 12.2359 3.02105 12.1838 3.01172 12.1309C3.00423 12.0884 3 12.0447 3 12.0001C3 11.9548 3.00402 11.9103 3.01172 11.8673C3.02081 11.8164 3.03505 11.7663 3.05469 11.7178L3.05859 11.7081C3.07017 11.6807 3.08596 11.6556 3.10059 11.6299C3.13302 11.5731 3.17122 11.5183 3.21973 11.4698L9.96973 4.71979Z" fill="black"/>
</svg>
