<svg width="28" height="28" viewBox="0 0 28 28" fill="none" xmlns="http://www.w3.org/2000/svg">
<g clip-path="url(#clip0_13328_19644)">
<path d="M14 12.25C16.8995 12.25 19.25 9.8995 19.25 7C19.25 4.1005 16.8995 1.75 14 1.75C11.1005 1.75 8.75 4.1005 8.75 7C8.75 9.8995 11.1005 12.25 14 12.25Z" stroke="#003686" stroke-width="1.5" stroke-linecap="round" stroke-linejoin="round"/>
<path d="M6.125 16.625C7.71395 14.0102 10.5998 12.25 14 12.25C17.4002 12.25 20.2861 14.0102 21.875 16.625" stroke="#003686" stroke-width="1.5" stroke-linecap="round" stroke-linejoin="round"/>
<path d="M2.625 17.5H25.375V25.375H2.625V17.5Z" stroke="#003686" stroke-width="1.5" stroke-linecap="round" stroke-linejoin="round"/>
<path d="M8 20.0625L5.25 22.8125" stroke="#003686" stroke-width="1.2" stroke-linecap="round" stroke-linejoin="round"/>
<path d="M8 22.8125L5.25 20.0625" stroke="#003686" stroke-width="1.2" stroke-linecap="round" stroke-linejoin="round"/>
<path d="M12.9492 20.0625L10.1992 22.8125" stroke="#003686" stroke-width="1.2" stroke-linecap="round" stroke-linejoin="round"/>
<path d="M12.9492 22.8125L10.1992 20.0625" stroke="#003686" stroke-width="1.2" stroke-linecap="round" stroke-linejoin="round"/>
<path d="M17.8984 20.0625L15.1484 22.8125" stroke="#003686" stroke-width="1.2" stroke-linecap="round" stroke-linejoin="round"/>
<path d="M17.8984 22.8125L15.1484 20.0625" stroke="#003686" stroke-width="1.2" stroke-linecap="round" stroke-linejoin="round"/>
<path d="M22.8516 20.0625L20.1016 22.8125" stroke="#003686" stroke-width="1.2" stroke-linecap="round" stroke-linejoin="round"/>
<path d="M22.8516 22.8125L20.1016 20.0625" stroke="#003686" stroke-width="1.2" stroke-linecap="round" stroke-linejoin="round"/>
</g>
<defs>
<clipPath id="clip0_13328_19644">
<rect width="28" height="28" fill="white"/>
</clipPath>
</defs>
</svg>
