<svg width="79" height="29" viewBox="0 0 79 29" fill="none" xmlns="http://www.w3.org/2000/svg">
<rect y="0.5" width="79" height="28" rx="14" fill="white"/>
<path d="M15 3.5C21.0751 3.5 26 8.42487 26 14.5C26 20.5751 21.0751 25.5 15 25.5C8.92487 25.5 4 20.5751 4 14.5C4 8.42487 8.92487 3.5 15 3.5ZM12.6289 8.47559C11.8116 8.58314 11.0606 8.98426 10.5176 9.60449C9.97452 10.2248 9.67626 11.0222 9.67773 11.8467C9.67785 16.6362 13.5746 20.5332 18.3643 20.5332C19.1886 20.5346 19.9852 20.2354 20.6055 19.6924C21.2257 19.1493 21.6278 18.3994 21.7354 17.582C21.7604 17.3752 21.717 17.166 21.6133 16.9854C21.5095 16.8047 21.3505 16.6616 21.1592 16.5791L18.3174 15.3057L18.3096 15.3027C18.162 15.2396 18.0006 15.2138 17.8408 15.2285C17.6812 15.2433 17.5279 15.2978 17.3945 15.3867C17.3788 15.3971 17.3631 15.4088 17.3486 15.4209L15.8809 16.6699C14.9507 16.2169 13.9899 15.2648 13.5381 14.3467L14.7939 12.8584C14.806 12.8433 14.8173 12.8278 14.8281 12.8115C14.9151 12.6779 14.9681 12.525 14.9814 12.3662C14.9948 12.2074 14.9686 12.0476 14.9053 11.9014V11.8945L13.6309 9.0498C13.5481 8.85883 13.4062 8.69918 13.2256 8.5957C13.045 8.49227 12.8355 8.45045 12.6289 8.47559Z" fill="#D56667"/>
<path d="M36.93 21.626L34.194 21.59V11.186L31.494 12.284L30.612 9.872L34.212 8.378H36.93V21.626ZM46.4081 14.768C47.0201 15.104 47.5181 15.566 47.9021 16.154C48.2981 16.742 48.4961 17.318 48.4961 17.882C48.4961 18.626 48.2921 19.292 47.8841 19.88C47.4881 20.456 46.9241 20.906 46.1921 21.23C45.4721 21.554 44.6501 21.716 43.7261 21.716C42.8021 21.716 41.9741 21.542 41.2421 21.194C40.5221 20.846 39.9581 20.36 39.5501 19.736C39.1541 19.112 38.9561 18.404 38.9561 17.612H41.6921C41.6921 17.936 41.7761 18.23 41.9441 18.494C42.1241 18.746 42.3641 18.944 42.6641 19.088C42.9761 19.232 43.3301 19.304 43.7261 19.304C44.1461 19.304 44.5181 19.232 44.8421 19.088C45.1661 18.944 45.4181 18.746 45.5981 18.494C45.7901 18.23 45.8861 17.936 45.8861 17.612C45.8861 17.276 45.7961 16.976 45.6161 16.712C45.4361 16.448 45.1841 16.244 44.8601 16.1C44.5361 15.944 44.1701 15.866 43.7621 15.866H42.8621V13.706H43.7981C44.1701 13.706 44.4941 13.64 44.7701 13.508C45.0581 13.376 45.2801 13.19 45.4361 12.95C45.6041 12.71 45.6881 12.44 45.6881 12.14C45.6881 11.72 45.5141 11.378 45.1661 11.114C44.8301 10.838 44.3921 10.7 43.8521 10.7C43.5161 10.7 43.2161 10.76 42.9521 10.88C42.7001 11 42.4961 11.174 42.3401 11.402C42.1961 11.618 42.1241 11.864 42.1241 12.14H39.3881C39.3881 11.396 39.5741 10.73 39.9461 10.142C40.3301 9.554 40.8581 9.098 41.5301 8.774C42.2141 8.45 42.9881 8.288 43.8521 8.288C44.7041 8.288 45.4661 8.444 46.1381 8.756C46.8101 9.056 47.3321 9.476 47.7041 10.016C48.0881 10.556 48.2801 11.174 48.2801 11.87C48.2801 12.398 48.1061 12.932 47.7581 13.472C47.4101 14.012 46.9601 14.444 46.4081 14.768ZM57.0696 14.768C57.6816 15.104 58.1796 15.566 58.5636 16.154C58.9596 16.742 59.1576 17.318 59.1576 17.882C59.1576 18.626 58.9536 19.292 58.5456 19.88C58.1496 20.456 57.5856 20.906 56.8536 21.23C56.1336 21.554 55.3116 21.716 54.3876 21.716C53.4636 21.716 52.6356 21.542 51.9036 21.194C51.1836 20.846 50.6196 20.36 50.2116 19.736C49.8156 19.112 49.6176 18.404 49.6176 17.612H52.3536C52.3536 17.936 52.4376 18.23 52.6056 18.494C52.7856 18.746 53.0256 18.944 53.3256 19.088C53.6376 19.232 53.9916 19.304 54.3876 19.304C54.8076 19.304 55.1796 19.232 55.5036 19.088C55.8276 18.944 56.0796 18.746 56.2596 18.494C56.4516 18.23 56.5476 17.936 56.5476 17.612C56.5476 17.276 56.4576 16.976 56.2776 16.712C56.0976 16.448 55.8456 16.244 55.5216 16.1C55.1976 15.944 54.8316 15.866 54.4236 15.866H53.5236V13.706H54.4596C54.8316 13.706 55.1556 13.64 55.4316 13.508C55.7196 13.376 55.9416 13.19 56.0976 12.95C56.2656 12.71 56.3496 12.44 56.3496 12.14C56.3496 11.72 56.1756 11.378 55.8276 11.114C55.4916 10.838 55.0536 10.7 54.5136 10.7C54.1776 10.7 53.8776 10.76 53.6136 10.88C53.3616 11 53.1576 11.174 53.0016 11.402C52.8576 11.618 52.7856 11.864 52.7856 12.14H50.0496C50.0496 11.396 50.2356 10.73 50.6076 10.142C50.9916 9.554 51.5196 9.098 52.1916 8.774C52.8756 8.45 53.6496 8.288 54.5136 8.288C55.3656 8.288 56.1276 8.444 56.7996 8.756C57.4716 9.056 57.9936 9.476 58.3656 10.016C58.7496 10.556 58.9416 11.174 58.9416 11.87C58.9416 12.398 58.7676 12.932 58.4196 13.472C58.0716 14.012 57.6216 14.444 57.0696 14.768ZM60.8191 19.232C61.1791 18.896 61.5691 18.548 61.9891 18.188C62.4211 17.816 62.8351 17.468 63.2311 17.144C64.0351 16.496 64.6591 15.962 65.1031 15.542C65.5591 15.122 65.9311 14.69 66.2191 14.246C66.5191 13.802 66.6691 13.358 66.6691 12.914C66.6691 12.506 66.5911 12.146 66.4351 11.834C66.2791 11.522 66.0631 11.282 65.7871 11.114C65.5111 10.934 65.1931 10.844 64.8331 10.844C64.3771 10.844 63.9391 10.982 63.5191 11.258C63.0991 11.534 62.7931 11.894 62.6011 12.338L60.2791 11.294C60.6751 10.418 61.2991 9.698 62.1511 9.134C63.0031 8.57 63.8971 8.288 64.8331 8.288C65.7211 8.288 66.5071 8.486 67.1911 8.882C67.8871 9.266 68.4271 9.812 68.8111 10.52C69.2071 11.216 69.4051 12.014 69.4051 12.914C69.4051 13.79 69.1711 14.618 68.7031 15.398C68.2471 16.166 67.6951 16.85 67.0471 17.45C66.4111 18.038 65.5711 18.74 64.5271 19.556C63.6151 20.276 62.9431 20.834 62.5111 21.23L60.8191 19.232ZM60.8191 19.232H69.5851V21.608H60.9991L60.8191 19.232Z" fill="#D56667"/>
</svg>
