<svg width="24" height="24" viewBox="0 0 24 24" fill="none" xmlns="http://www.w3.org/2000/svg">
<path d="M15 3C15.2508 3 15.4849 3.12534 15.624 3.33398L16.9014 5.25H19.5C20.0967 5.25 20.6689 5.48722 21.0908 5.90918C21.5128 6.33114 21.75 6.90326 21.75 7.5V18C21.75 18.5967 21.5128 19.1689 21.0908 19.5908C20.6689 20.0128 20.0967 20.25 19.5 20.25H4.5C3.90326 20.25 3.33114 20.0128 2.90918 19.5908C2.48722 19.1689 2.25 18.5967 2.25 18V7.5C2.25 6.90326 2.48722 6.33114 2.90918 5.90918C3.33114 5.48722 3.90326 5.25 4.5 5.25H7.09863L8.37598 3.33398L8.43262 3.25977C8.57405 3.09604 8.78061 3 9 3H15ZM8.12402 6.41602C7.98492 6.62466 7.75076 6.75 7.5 6.75H4.5C4.30109 6.75 4.11038 6.82907 3.96973 6.96973C3.82907 7.11038 3.75 7.30109 3.75 7.5V18L3.76465 18.1475C3.79352 18.2914 3.86435 18.4249 3.96973 18.5303C4.11038 18.6709 4.30109 18.75 4.5 18.75H19.5C19.6989 18.75 19.8896 18.6709 20.0303 18.5303C20.1709 18.3896 20.25 18.1989 20.25 18V7.5C20.25 7.30109 20.1709 7.11038 20.0303 6.96973C19.8896 6.82907 19.6989 6.75 19.5 6.75H16.5C16.2492 6.75 16.0151 6.62466 15.876 6.41602L14.5986 4.5H9.40137L8.12402 6.41602ZM12 8.25C14.2782 8.25 16.125 10.0968 16.125 12.375C16.125 14.6532 14.2782 16.5 12 16.5C9.72183 16.5 7.875 14.6532 7.875 12.375C7.875 10.0968 9.72183 8.25 12 8.25ZM12 9.75C10.5503 9.75 9.375 10.9253 9.375 12.375C9.375 13.8247 10.5503 15 12 15C13.4497 15 14.625 13.8247 14.625 12.375C14.625 10.9253 13.4497 9.75 12 9.75Z" fill="currentColor"/>
</svg>
