<svg width="190" height="190" viewBox="0 0 190 190" fill="none" xmlns="http://www.w3.org/2000/svg">
<path d="M70.832 172.473C63.7654 172.473 57.3654 170.939 51.632 167.873C45.8987 164.806 41.3654 160.406 38.032 154.673C34.6987 148.939 33.032 142.206 33.032 134.473C33.032 125.139 35.4987 117.073 40.432 110.273C45.3654 103.473 51.8987 98.6727 60.032 95.8727C51.8987 93.0727 45.3654 88.2727 40.432 81.4727C35.4987 74.6727 33.032 66.6061 33.032 57.2727C33.032 49.4061 34.6987 42.6727 38.032 37.0727C41.3654 31.3394 45.8987 26.9394 51.632 23.8727C57.3654 20.8061 63.7654 19.2727 70.832 19.2727C79.232 19.2727 86.8987 21.4727 93.832 25.8727C100.765 30.2727 106.032 36.6727 109.632 45.0727L113.832 54.8727C118.232 65.0061 122.965 73.2061 128.032 79.4727C133.099 85.6061 139.165 88.6727 146.232 88.6727C148.232 88.6727 150.099 88.4727 151.832 88.0727C153.699 87.5394 155.432 86.8727 157.032 86.0727V105.673C155.432 104.873 153.699 104.273 151.832 103.873C150.099 103.339 148.232 103.073 146.232 103.073C139.165 103.073 133.099 106.139 128.032 112.273C122.965 118.406 118.232 126.606 113.832 136.873L109.632 146.673C106.032 155.073 100.765 161.473 93.832 165.873C86.8987 170.273 79.232 172.473 70.832 172.473Z" fill="#171717"/>
</svg>
