<svg width="190" height="190" viewBox="0 0 190 190" fill="currentColor" xmlns="http://www.w3.org/2000/svg">
<g clip-path="url(#clip0_10041_1522)">
<path d="M167.11 117.778C167.74 105.855 168.58 93.9622 169.54 82.0692C169.96 76.8434 170.38 71.5877 170.77 66.3619C171.1 61.7969 163.57 61.7969 163.24 66.3619C162.25 79.6365 161.08 92.9111 160.24 106.186C160 110.06 159.79 113.904 159.58 117.778C159.4 120.992 159.91 121.052 158.53 123.064C156.22 126.428 152.89 129.281 149.8 132.014C141.52 139.372 132.58 146.159 123.46 152.587C114.13 159.134 101.05 168.654 88.84 165.02C85.15 163.909 82.33 161.717 80.23 158.984C83.86 160.095 87.7 160.635 90.61 159.074C92.74 157.902 93.82 155.56 94.6 153.457C97.06 146.82 97.48 139.282 98.05 132.314C98.8 123.034 99.13 113.694 99.28 104.384C99.4 96.9955 99.43 89.6375 99.37 82.2494C99.37 80.8078 99.49 79.2761 99.31 77.8646C98.95 75.0715 96.76 74.1405 94.33 73.0893C76.03 65.1306 56.47 59.8448 37.87 52.5468C37.15 52.2765 36.43 51.9461 35.71 51.6758C47.74 46.2699 60.16 41.5547 72.43 36.7795C79.45 34.0465 86.47 31.3135 93.61 28.9109C94.69 28.5505 95.77 28.1901 96.85 27.8597C97.21 27.7396 98.71 27.4693 98.59 27.4092C105.19 26.8686 110.71 29.5416 116.65 32.0043C129.64 37.3501 142.33 43.2666 154.78 49.6036C138.19 56.2709 121.84 63.3887 105.07 69.6656C100.6 71.3474 102.55 78.225 107.08 76.5431C126.43 69.3052 145.21 60.896 164.44 53.4177C167.23 52.3366 168.43 48.5224 165.34 46.9006C151.63 39.7227 137.68 33.0554 123.34 27.0488C114.49 23.3548 104.77 18.129 94.84 20.9822C78.79 25.5772 63.25 32.6049 47.86 38.8818C40.24 41.9752 32.56 45.0386 25.15 48.5824C22.57 49.8138 22.84 53.4478 25.15 54.7392C36.13 60.926 49.33 64.4699 61.24 68.6444C68.23 71.0771 75.22 73.5098 82.18 76.0325C85.27 77.1738 88.78 78.1949 91.78 79.7566C91.93 88.3761 91.9 96.9955 91.72 105.585C91.45 119.55 91.63 134.236 88.39 147.931C88 149.553 87.16 151.145 86.77 152.406C85.33 152.256 83.08 152.166 82.48 152.016C80.38 151.475 78.4 150.694 76.42 149.854C76.39 149.854 76.33 149.823 76.3 149.793C75.97 148.052 75.76 146.28 75.76 144.568C75.82 136.158 79.09 128.05 82.24 120.301C86.38 110.18 88.54 98.9176 82.69 88.9767C72.61 71.7979 47.2 67.6534 28.9 63.3587C25.48 62.5478 21.67 61.5266 20.53 65.7012C19.9 68.0138 20.23 70.7467 20.32 73.1194C20.62 81.9791 21.4 90.8688 22.3 99.6985C23.14 107.928 23.89 116.307 25.69 124.416C27.4 132.104 34.63 136.309 41.29 140.303C50.38 145.799 60.04 150.514 69.85 154.809C71.71 160.786 75.4 166.071 81.52 169.615C92.95 176.252 106.54 171.327 116.98 165.381C131.62 157.001 145.66 146.009 157.78 134.627C160.27 132.284 162.76 129.852 164.71 127.089C166.87 124.085 166.93 121.352 167.11 117.778ZM27.88 67.353C27.82 66.6623 28.12 67.353 27.88 67.353V67.353ZM50.38 137.21C46.18 134.867 41.92 132.434 38.11 129.551C36.73 128.5 35.35 127.389 34.24 126.097C33.34 125.076 34 126.097 33.61 124.926C31.87 119.43 31.42 113.424 30.76 107.777C29.83 99.8787 29.08 91.98 28.51 84.0513C28.21 79.7266 28.42 75.1916 28.18 70.8068C29.32 71.017 30.46 71.1372 31.36 71.3474C35.83 72.3986 40.27 73.4497 44.68 74.6811C52.84 76.9335 61.18 79.6665 68.17 84.4117C74.68 88.8266 78.88 95.1335 78.88 102.822C78.88 114.565 71.26 125.076 69.13 136.519C68.53 139.732 68.29 143.066 68.44 146.34C62.32 143.517 56.29 140.513 50.41 137.24L50.38 137.21Z" fill="currentColor" stroke="currentColor" stroke-width="0.79" stroke-miterlimit="10"/>
</g>
<defs>
<clipPath id="clip0_10041_1522">
<rect width="153" height="155" fill="white" transform="translate(19 19)"/>
</clipPath>
</defs>
</svg>
