<svg width="190" height="190" viewBox="0 0 190 190" fill="none" xmlns="http://www.w3.org/2000/svg">
<path d="M90.9883 171.673C89.5216 163.006 85.655 153.673 79.3883 143.673C73.1216 133.539 64.1883 124.139 52.5883 115.473C41.1216 106.806 29.6549 101.273 18.1883 98.8727V90.4727C29.5216 87.8061 40.3883 82.8727 50.7883 75.6727C61.3216 68.3394 70.1216 59.5394 77.1883 49.2727C84.3883 38.7394 88.9883 28.3394 90.9883 18.0727H99.3883C100.588 24.7394 102.988 31.6061 106.588 38.6727C110.188 45.6061 114.788 52.2727 120.388 58.6727C126.122 64.9394 132.522 70.6061 139.588 75.6727C150.122 83.1394 160.855 88.0727 171.788 90.4727V98.8727C164.455 100.339 156.855 103.339 148.988 107.873C141.255 112.406 134.055 117.806 127.388 124.073C120.722 130.206 115.255 136.673 110.988 143.473C104.722 153.473 100.855 162.873 99.3883 171.673H90.9883Z" fill="#171717"/>
</svg>
