<svg width="28" height="28" viewBox="0 0 28 28" fill="none" xmlns="http://www.w3.org/2000/svg">
<g clip-path="url(#clip0_13328_19668)">
<path d="M21 13.125V4.375C21 3.4085 20.2165 2.625 19.25 2.625H8.75C7.7835 2.625 7 3.4085 7 4.375V23.625C7 24.5915 7.7835 25.375 8.75 25.375H13.125" stroke="#003686" stroke-width="2" stroke-linecap="round" stroke-linejoin="round"/>
<path d="M7 6.125H21" stroke="#003686" stroke-width="2" stroke-linecap="round" stroke-linejoin="round"/>
<path d="M7 21.875H13.125" stroke="#003686" stroke-width="2" stroke-linecap="round" stroke-linejoin="round"/>
<path d="M18.8125 21.4375L20.125 22.75L23.1875 19.6875" stroke="#003686" stroke-width="2" stroke-linecap="round" stroke-linejoin="round"/>
<path d="M21 26.25C23.8995 26.25 26.25 23.8995 26.25 21C26.25 18.1005 23.8995 15.75 21 15.75C18.1005 15.75 15.75 18.1005 15.75 21C15.75 23.8995 18.1005 26.25 21 26.25Z" stroke="#003686" stroke-width="2" stroke-linecap="round" stroke-linejoin="round"/>
</g>
<defs>
<clipPath id="clip0_13328_19668">
<rect width="28" height="28" fill="white"/>
</clipPath>
</defs>
</svg>
