<svg width="28" height="28" viewBox="0 0 28 28" fill="none" xmlns="http://www.w3.org/2000/svg">
<g clip-path="url(#clip0_13328_19628)">
<path d="M13.5625 2.625H19.25C20.2165 2.625 21 3.4085 21 4.375V23.625C21 24.5915 20.2165 25.375 19.25 25.375H8.75C7.7835 25.375 7 24.5915 7 23.625V14" stroke="#003686" stroke-width="1.5" stroke-linecap="round" stroke-linejoin="round"/>
<path d="M13.5625 6.125H21" stroke="#003686" stroke-width="1.5" stroke-linecap="round" stroke-linejoin="round"/>
<path d="M7 21.875H21" stroke="#003686" stroke-width="1.5" stroke-linecap="round" stroke-linejoin="round"/>
<path d="M5.6875 6.83594C6.01973 6.83594 6.28906 6.56661 6.28906 6.23438C6.28906 5.90214 6.01973 5.63281 5.6875 5.63281C5.35527 5.63281 5.08594 5.90214 5.08594 6.23438C5.08594 6.56661 5.35527 6.83594 5.6875 6.83594Z" fill="#333537"/>
<path d="M3.48047 6.83594C3.8127 6.83594 4.08203 6.56661 4.08203 6.23438C4.08203 5.90214 3.8127 5.63281 3.48047 5.63281C3.14823 5.63281 2.87891 5.90214 2.87891 6.23438C2.87891 6.56661 3.14823 6.83594 3.48047 6.83594Z" fill="#333537"/>
<path d="M7.89453 6.83594C8.22677 6.83594 8.49609 6.56661 8.49609 6.23438C8.49609 5.90214 8.22677 5.63281 7.89453 5.63281C7.5623 5.63281 7.29297 5.90214 7.29297 6.23438C7.29297 6.56661 7.5623 6.83594 7.89453 6.83594Z" fill="#333537"/>
<path d="M4.53801 9.84375L5.3401 11.2474C5.37515 11.3089 5.42584 11.36 5.48703 11.3955C5.54822 11.4311 5.61773 11.4498 5.6885 11.4498C5.75927 11.4498 5.82878 11.4311 5.88997 11.3955C5.95116 11.36 6.00186 11.3089 6.03691 11.2474L6.83899 9.84375H10.099C10.2053 9.84375 10.3073 9.8015 10.3825 9.72629C10.4577 9.65108 10.5 9.54907 10.5 9.44271V3.02604C10.5 2.91968 10.4577 2.81767 10.3825 2.74246C10.3073 2.66725 10.2053 2.625 10.099 2.625H1.27604C1.16968 2.625 1.06767 2.66725 0.992462 2.74246C0.917253 2.81767 0.875 2.91968 0.875 3.02604V9.44271C0.875 9.54907 0.917253 9.65108 0.992462 9.72629C1.06767 9.8015 1.16968 9.84375 1.27604 9.84375H4.53801Z" stroke="#003686" stroke-width="1.5" stroke-linecap="round" stroke-linejoin="round"/>
</g>
<defs>
<clipPath id="clip0_13328_19628">
<rect width="28" height="28" fill="white"/>
</clipPath>
</defs>
</svg>
