<svg width="12" height="14" viewBox="0 0 12 14" fill="none" xmlns="http://www.w3.org/2000/svg">
<path d="M7.5 0.5C7.62209 0.5 7.73252 0.545477 7.81934 0.618164C7.83066 0.627634 7.843 0.635964 7.85352 0.646484L11.3535 4.14648C11.4221 4.21506 11.4706 4.30346 11.4902 4.40234C11.4966 4.43428 11.5 4.46696 11.5 4.5V12.5C11.5 12.7652 11.3946 13.0195 11.207 13.207C11.0195 13.3946 10.7652 13.5 10.5 13.5H1.5C1.23478 13.5 0.980506 13.3946 0.792969 13.207C0.605433 13.0195 0.5 12.7652 0.5 12.5V1.5C0.5 1.23478 0.605433 0.980505 0.792969 0.792969C0.980505 0.605433 1.23478 0.5 1.5 0.5H7.5ZM1.5 12.5H10.5V5H7.5C7.22386 5 7 4.77614 7 4.5V1.5H1.5V12.5ZM8 4H9.79297L8 2.20703V4Z" fill="#003686"/>
</svg>
