<svg width="127" height="25" viewBox="0 0 127 25" fill="none" xmlns="http://www.w3.org/2000/svg">
<path d="M7.88965 0C7.47288 0.298457 7.09272 0.688631 6.75781 1.16309C5.71582 2.61721 5.18752 4.7912 5.1875 7.61523C5.1875 9.90731 5.5291 13.7174 5.53027 13.7305C5.76099 15.6514 6.22975 17.557 6.92188 19.4014C7.86707 21.9192 9.19193 23.7716 10.8516 24.9043L10.6846 25C8.15789 24.3964 5.93977 23.0865 4.04883 21.0703C1.36192 18.2003 0 14.6104 0 10.3857C4.73468e-05 6.78108 1.14649 4.07139 3.50586 2.10449C4.78597 1.04083 6.25235 0.336721 7.88965 0ZM81.9922 3.92676C83.4433 3.92678 84.7829 4.30891 85.9736 5.06641L85.9668 5.07422C87.1725 5.80891 88.1472 6.82698 88.8691 8.08203C89.5985 9.32954 89.9707 10.7613 89.9707 12.292C89.9706 13.8225 89.6059 15.2383 88.8691 16.501C88.1472 17.7484 87.1725 18.7588 85.9668 19.5088C84.7685 20.2588 83.4134 20.6338 81.9844 20.6338C80.5554 20.6337 79.2229 20.2511 78.0098 19.5088C76.8116 18.7588 75.8368 17.7484 75.1074 16.501C74.3781 15.2383 74.0137 13.8302 74.0137 12.292C74.0137 10.7537 74.3855 9.3372 75.1074 8.08203C75.8368 6.81931 76.8115 5.80876 78.0098 5.06641C79.223 4.30872 80.5408 3.92676 81.9922 3.92676ZM100.502 3.92676C101.953 3.92676 103.294 4.30872 104.484 5.06641L104.477 5.07422C105.682 5.8089 106.657 6.82699 107.379 8.08203C108.108 9.32954 108.48 10.7613 108.48 12.292C108.48 13.8225 108.116 15.2383 107.379 16.501C106.657 17.7484 105.682 18.7588 104.477 19.5088C103.278 20.2588 101.923 20.6338 100.494 20.6338C99.0654 20.6337 97.7335 20.251 96.5205 19.5088C95.3222 18.7588 94.3466 17.7485 93.6172 16.501C92.8879 15.2383 92.5235 13.8301 92.5234 12.292C92.5234 10.7537 92.8952 9.3372 93.6172 8.08203C94.3466 6.81922 95.3222 5.80879 96.5205 5.06641C97.7336 4.30891 99.0508 3.92678 100.502 3.92676ZM38.5176 4.26367C39.5149 4.26368 40.4231 4.47019 41.2344 4.86816L41.2266 4.875C42.0527 5.28829 42.7226 5.87058 43.2139 6.59766C43.7125 7.32473 43.9658 8.22025 43.9658 9.18457C43.9658 10.1488 43.7125 11.0135 43.2139 11.7559C42.7226 12.4829 42.0527 13.0643 41.2266 13.4775C40.4153 13.8755 39.4997 14.083 38.5098 14.083H34.1406V20.3584H31.5957V4.26367H38.5176ZM48.8037 20.3584H46.2588V4.26367H48.8037V20.3584ZM58.1299 16.4707L61.2109 7.65332L60.0576 4.26367H62.7441L66.9639 16.4707L71.2363 4.26367H72.9414L67.3145 20.3584H65.8779L62.0596 10.0645L58.4717 20.3584H56.7227L51.207 4.26367H53.9014L58.1299 16.4707ZM119.073 16.7227L124.573 4.26367H127V20.3584H124.439V8.75586L119.259 20.3584H117.875L112.694 8.93945V20.3584H111.042V4.26367H113.453L119.073 16.7227ZM81.9922 5.64844C80.9725 5.64844 80.0565 5.92372 79.2676 6.48242C78.4787 7.04112 77.846 7.8295 77.3994 8.83203C76.9454 9.83463 76.7148 10.9984 76.7148 12.2842C76.7149 13.5697 76.9455 14.7329 77.3994 15.7354C77.8385 16.7303 78.464 17.5264 79.2529 18.0928C80.027 18.6591 80.9502 18.9424 81.9922 18.9424L81.999 18.958C83.041 18.958 83.9646 18.6671 84.7461 18.1084C85.535 17.5344 86.1605 16.7459 86.5996 15.751C87.0536 14.7409 87.2763 13.5776 87.2764 12.292C87.2764 10.3711 86.7855 8.77108 85.8105 7.53125C84.8281 6.29143 83.5775 5.67143 81.9922 5.64844ZM100.502 5.64844C99.4824 5.64846 98.5672 5.92389 97.7783 6.48242C96.9894 7.04107 96.3567 7.82956 95.9102 8.83203C95.4561 9.83463 95.2246 10.9984 95.2246 12.2842C95.2246 13.5698 95.4562 14.7328 95.9102 15.7354C96.3492 16.7302 96.9739 17.5264 97.7627 18.0928C98.5367 18.6591 99.46 18.9424 100.502 18.9424L100.51 18.958C101.552 18.958 102.474 18.667 103.256 18.1084C104.045 17.5344 104.67 16.7459 105.109 15.751C105.563 14.7408 105.786 13.5776 105.786 12.292C105.786 10.371 105.295 8.77109 104.32 7.53125C103.338 6.29139 102.087 5.6714 100.502 5.64844ZM14.9902 0.642578C15.0467 0.59325 16.1907 1.54892 17.1191 2.74805C17.9376 3.81168 18.2725 4.87528 18.3916 5.31152C18.5181 5.79369 18.7416 6.81204 18.5928 8.10547C18.3694 10.0417 17.4309 11.7635 15.9424 12.9727L10.3975 17.4727C9.44492 16.0262 9.03538 14.3043 9.23633 12.5518C9.45961 10.6232 10.5388 9.61267 12.0273 8.41113C12.0794 8.36523 12.1319 8.31951 12.1914 8.28125C12.2955 8.18947 12.3998 8.09764 12.5039 8.00586C12.556 7.95994 12.6012 7.91393 12.6533 7.86035C13.059 7.45833 13.3983 7.01077 13.4043 7.00293C13.4787 6.91109 13.8367 6.42882 14.127 5.87012C14.1397 5.84541 14.9164 4.32928 14.9902 1.2627V0.642578ZM34.1406 12.376H38.5098C39.2913 12.376 39.9319 12.0924 40.4678 11.5107C41.0109 10.9291 41.2715 10.1639 41.2715 9.17676C41.2715 8.18953 41.011 7.4241 40.4678 6.82715C39.9393 6.25316 39.2991 5.96974 38.5176 5.96973H34.1484L34.1406 5.96191V12.376Z" fill="#003686"/>
</svg>
