<svg width="50" height="50" viewBox="0 0 50 50" fill="none" xmlns="http://www.w3.org/2000/svg">
<path d="M0 8C0 3.58172 3.58172 0 8 0H42C46.4183 0 50 3.58172 50 8V42C50 46.4183 46.4183 50 42 50H8C3.58172 50 0 46.4183 0 42V8Z" fill="#FFDE32"/>
<path fill-rule="evenodd" clip-rule="evenodd" d="M25 15.6187C19.48 15.6187 15 19.0987 15 23.3787C15 26.0487 16.73 28.3787 19.37 29.7987L18.26 33.8687C18.2391 33.9497 18.2434 34.0351 18.2724 34.1135C18.3013 34.192 18.3536 34.2597 18.4222 34.3075C18.4907 34.3554 18.5723 34.3812 18.6559 34.3814C18.7395 34.3816 18.8212 34.3562 18.89 34.3087L23.75 31.0787C24.16 31.0787 24.58 31.1487 25 31.1487C30.52 31.1487 35 27.6687 35 23.3787C35 19.0887 30.52 15.6187 25 15.6187Z" fill="black"/>
</svg>
