<svg width="24" height="24" viewBox="0 0 24 24" fill="none" xmlns="http://www.w3.org/2000/svg">
<path fill-rule="evenodd" clip-rule="evenodd" d="M12 2.61865C6.48 2.61865 2 6.09865 2 10.3787C2 13.0487 3.73 15.3787 6.37 16.7987L5.26 20.8687C5.23906 20.9496 5.24337 21.035 5.27235 21.1135C5.30134 21.1919 5.35362 21.2596 5.42217 21.3075C5.49073 21.3554 5.57228 21.3811 5.6559 21.3813C5.73952 21.3815 5.8212 21.3562 5.89 21.3087L10.75 18.0787C11.16 18.0787 11.58 18.1487 12 18.1487C17.52 18.1487 22 14.6687 22 10.3787C22 6.08865 17.52 2.61865 12 2.61865Z" fill="white"/>
</svg>
