<svg width="32" height="34" viewBox="0 0 32 34" fill="none" xmlns="http://www.w3.org/2000/svg">
<path fill-rule="evenodd" clip-rule="evenodd" d="M24.9938 0.387726C24.8856 0.09352 24.5672 -0.0653988 24.2671 0.0255804C15.9817 2.54287 12.3645 4.97982 10.5326 7.39726C9.28787 9.03903 8.85012 10.6843 8.38283 12.384C7.66506 14.9958 6.84213 17.734 2.25431 20.7759C2.04459 20.9154 1.94593 21.1724 2.00914 21.4163C2.07236 21.6603 2.28326 21.8376 2.53492 21.8571C13.3529 22.7048 19.8701 19.8673 23.2368 15.6161C26.6467 11.3123 26.8741 5.51447 24.9938 0.387726Z" fill="#A7D533"/>
<path fill-rule="evenodd" clip-rule="evenodd" d="M2.36242 20.7037C2.32697 20.7279 2.29094 20.7515 2.25431 20.7757C2.04459 20.9151 1.94593 21.1721 2.00914 21.4161C2.07236 21.6601 2.28326 21.8373 2.53492 21.8568L2.61763 21.8633C2.64362 21.8574 2.66666 21.8527 2.68733 21.8492C6.11668 21.1284 9.65296 19.1966 12.7332 16.6261C15.7047 14.1461 18.2514 11.0858 19.8595 7.99609C18.1079 10.9677 15.4347 13.8654 12.3669 16.1624C9.28196 18.4729 5.80122 20.169 2.47466 20.6871C2.44394 20.6924 2.40613 20.6977 2.36242 20.7037Z" fill="#49BA6E"/>
</svg>
