<svg width="204" height="41" viewBox="0 0 204 41" fill="none" xmlns="http://www.w3.org/2000/svg">
<path d="M13.1113 0C12.4451 0.477554 11.8381 1.10215 11.3027 1.86133C9.63715 4.18797 8.79199 7.66598 8.79199 12.1846C8.79202 15.8583 9.33984 21.9688 9.33984 21.9688C9.70866 25.0422 10.4581 28.091 11.5645 31.042C13.0753 35.0707 15.1928 38.0343 17.8457 39.8467L17.9844 40.0918C13.777 39.1717 10.095 37.0454 6.97168 33.7119C2.67694 29.1199 0.500007 23.3766 0.5 16.6172C0.5 10.8496 2.33216 6.51428 6.10352 3.36719C8.14976 1.66514 10.4941 0.538787 13.1113 0ZM131.559 6.28223C133.878 6.2823 136.019 6.89427 137.923 8.10645L137.911 8.11816C139.838 9.29365 141.397 10.9226 142.551 12.9307C143.717 14.9266 144.312 17.217 144.312 19.666C144.312 22.1151 143.729 24.3809 142.551 26.4014C141.397 28.3973 139.838 30.0139 137.911 31.2139C135.996 32.4139 133.83 33.0137 131.546 33.0137C129.262 33.0136 127.132 32.4016 125.193 31.2139C123.278 30.0139 121.72 28.3973 120.554 26.4014C119.388 24.3809 118.805 22.1274 118.805 19.666C118.805 17.2047 119.4 14.9389 120.554 12.9307C121.72 10.9104 123.278 9.29417 125.193 8.10645C127.133 6.89416 129.239 6.28223 131.559 6.28223ZM161.146 6.28223C163.466 6.28228 165.607 6.89429 167.511 8.10645L167.499 8.11816C169.426 9.29363 170.985 10.9226 172.139 12.9307C173.305 14.9266 173.899 17.217 173.899 19.666C173.899 22.1151 173.316 24.3809 172.139 26.4014C170.985 28.3972 169.426 30.0139 167.499 31.2139C165.584 32.4137 163.419 33.0136 161.135 33.0137C158.851 33.0137 156.72 32.4017 154.781 31.2139C152.866 30.0139 151.307 28.3973 150.142 26.4014C148.976 24.3809 148.393 22.1274 148.393 19.666C148.393 17.2047 148.988 14.9389 150.142 12.9307C151.307 10.9104 152.866 9.29418 154.781 8.10645C156.72 6.89414 158.827 6.28223 161.146 6.28223ZM62.0674 6.82031C63.6616 6.82032 65.1134 7.15132 66.4102 7.78809L66.3975 7.7998C67.718 8.46106 68.789 9.39234 69.5742 10.5557C70.3713 11.719 70.7764 13.1515 70.7764 14.6943C70.7764 16.2372 70.3713 17.6208 69.5742 18.8086C68.789 19.9719 67.718 20.9032 66.3975 21.5645C65.1009 22.201 63.6377 22.5312 62.0557 22.5312H55.0723V32.5732H51.0029V6.82031H62.0674ZM78.5088 32.5732H74.4404V6.82031H78.5088V32.5732ZM93.416 26.3525L98.3408 12.2451L96.4971 6.82031H100.792L107.537 26.3525L114.366 6.82031H117.091L108.097 32.5732H105.801L99.6973 16.1025L93.9629 32.5732H91.167L82.3516 6.82031H86.6582L93.416 26.3525ZM190.829 26.7559L199.621 6.82031H203.499V32.5732H199.407V14.0088L191.127 32.5732H188.914L180.634 14.3027V32.5732H177.992V6.82031H181.847L190.829 26.7559ZM131.559 9.03711C129.929 9.03711 128.465 9.47816 127.204 10.3721C125.943 11.2659 124.932 12.5268 124.218 14.1309C123.492 15.735 123.123 17.5971 123.123 19.6543C123.123 21.7114 123.492 23.5727 124.218 25.1768C124.92 26.7685 125.919 28.0421 127.18 28.9482C128.417 29.8544 129.893 30.3076 131.559 30.3076L131.57 30.332C133.236 30.332 134.711 29.8665 135.96 28.9727C137.221 28.0542 138.221 26.7931 138.923 25.2012C139.649 23.5848 140.005 21.7232 140.005 19.666C140.005 16.5925 139.22 14.0335 137.661 12.0498C136.091 10.0661 134.092 9.07395 131.559 9.03711ZM161.146 9.03711C159.517 9.03711 158.053 9.47815 156.792 10.3721C155.531 11.2659 154.519 12.5268 153.806 14.1309C153.08 15.735 152.711 17.5971 152.711 19.6543C152.711 21.7114 153.08 23.5727 153.806 25.1768C154.508 26.7686 155.507 28.0421 156.769 28.9482C158.006 29.8543 159.481 30.3076 161.146 30.3076L161.158 30.332C162.824 30.332 164.299 29.8665 165.548 28.9727C166.809 28.0542 167.809 26.7931 168.511 25.2012C169.236 23.5848 169.593 21.7232 169.593 19.666C169.593 16.5925 168.807 14.0335 167.249 12.0498C165.679 10.0661 163.68 9.07392 161.146 9.03711ZM24.46 1.02832C24.5432 0.942602 26.3762 2.47394 27.8633 4.39648C29.1716 6.09828 29.7071 7.79995 29.8975 8.49805C30.0997 9.26949 30.4566 10.8984 30.2188 12.9678C29.8618 16.0658 28.3627 18.8211 25.9834 20.7559L17.1201 27.9561C15.5975 25.6418 14.9426 22.887 15.2637 20.083C15.6206 16.9971 17.3462 15.3805 19.7256 13.458C19.8088 13.3846 19.8922 13.3112 19.9873 13.25C20.1539 13.1031 20.3207 12.9555 20.4873 12.8086C20.5704 12.7353 20.6415 12.6617 20.7246 12.5762C21.3789 11.9272 21.9268 11.2041 21.9268 11.2041C22.0466 11.056 22.6166 10.2854 23.0801 9.39258C23.0801 9.39258 24.341 6.96765 24.46 2.02051V1.02832ZM55.0723 19.8008H62.0557C63.3048 19.8007 64.328 19.3476 65.1846 18.417C66.0529 17.4864 66.4696 16.262 66.4697 14.6826C66.4697 13.103 66.053 11.878 65.1846 10.9229C64.3399 10.0044 63.3166 9.55177 62.0674 9.55176H55.084L55.0723 9.53906V19.8008Z" fill="white"/>
</svg>
