<svg width="50" height="50" viewBox="0 0 50 50" fill="none" xmlns="http://www.w3.org/2000/svg">
<g clip-path="url(#clip0_10217_940)">
<path d="M8.2796 0H41.7265C46.2952 0 50.0061 3.71091 50.0061 8.2796V41.7265C50.0061 46.2952 46.2952 50.0061 41.7265 50.0061H8.2796C3.71091 50.0061 0 46.2952 0 41.7265V8.2796C0 3.71091 3.71091 0 8.2796 0Z" fill="#00C73C"/>
<path d="M13.8702 13.5601V7.8477C13.8702 7.1481 14.436 6.58234 15.1356 6.58234C15.8352 6.58234 16.401 7.1481 16.401 7.8477V13.5601C16.401 18.2991 20.2579 22.156 24.9969 22.156C29.7359 22.156 33.5928 18.2991 33.5928 13.5601V7.8477C33.5928 7.1481 34.1586 6.58234 34.8582 6.58234C35.5578 6.58234 36.1236 7.1481 36.1236 7.8477V13.5601C36.1236 19.6983 31.129 24.6867 24.9969 24.6867C18.8648 24.6867 13.8702 19.6922 13.8702 13.5601Z" fill="white"/>
<path d="M42.4383 42.8276H39.573L34.6576 36.7928V42.8276H31.3481V32.6682H34.2135L39.1289 38.8186V32.6682H42.4383V42.8276Z" fill="white"/>
</g>
<defs>
<clipPath id="clip0_10217_940">
<rect width="50" height="50" fill="white"/>
</clipPath>
</defs>
</svg>
