<svg width="24" height="24" viewBox="0 0 24 24" fill="none" xmlns="http://www.w3.org/2000/svg">
<path d="M16.499 2.25C17.4937 2.25 18.448 2.64531 19.1514 3.34863C19.8545 4.05186 20.2499 5.00558 20.25 6C20.2499 6.9927 19.8551 7.94459 19.1543 8.64746L19.1553 8.64844L9.84473 18.0869C9.84105 18.0906 9.83674 18.095 9.83301 18.0986C9.40915 18.5102 8.83984 18.7386 8.24902 18.7344C7.65827 18.73 7.09268 18.4938 6.6748 18.0762C6.25691 17.6585 6.02022 17.0928 6.01562 16.502C6.01118 15.911 6.23983 15.342 6.65137 14.918L6.6543 14.9141L14.4648 6.97461C14.7553 6.67932 15.2301 6.67534 15.5254 6.96582C15.8205 7.25631 15.8246 7.73114 15.5342 8.02637L7.72656 15.9619C7.5896 16.1032 7.51421 16.2935 7.51562 16.4902C7.5172 16.6871 7.5961 16.8764 7.73535 17.0156C7.87455 17.1546 8.06309 17.2329 8.25977 17.2344C8.45667 17.2358 8.64681 17.1596 8.78809 17.0225L18.0869 7.5957L18.0908 7.5918C18.5128 7.16986 18.7499 6.5967 18.75 6C18.7499 5.4034 18.5126 4.8311 18.0908 4.40918C17.6688 3.98716 17.0959 3.75 16.499 3.75C15.9024 3.75014 15.3301 3.98729 14.9082 4.40918L5.60156 13.8438C4.90801 14.5488 4.52148 15.5003 4.52539 16.4893C4.52951 17.4784 4.92459 18.4265 5.62402 19.126C6.32342 19.8253 7.27077 20.2205 8.25977 20.2246C9.24892 20.2286 10.2001 19.8411 10.9053 19.1475L18.5947 11.4697C18.8878 11.1771 19.3626 11.1776 19.6553 11.4707C19.9476 11.7638 19.9473 12.2387 19.6543 12.5312L11.957 20.2168C10.9698 21.1879 9.63871 21.7302 8.25391 21.7246C6.86912 21.7189 5.54274 21.1657 4.56348 20.1865C3.5843 19.2073 3.0312 17.8808 3.02539 16.4961C3.01975 15.1112 3.56202 13.7792 4.5332 12.792L13.8438 3.35254L13.8477 3.34863C14.5509 2.64543 15.5046 2.25014 16.499 2.25Z" fill="black"/>
</svg>
