<svg width="24" height="24" viewBox="0 0 24 24" fill="none" xmlns="http://www.w3.org/2000/svg">
<path d="M7.67969 3.00555C7.8405 2.98645 8.00334 3.02024 8.14355 3.10126C8.28382 3.18238 8.39432 3.30675 8.45801 3.45575L10.4395 7.88055C10.488 7.99404 10.5078 8.11793 10.4971 8.24091C10.4863 8.36407 10.4447 8.48316 10.377 8.58661L8.37402 10.9684C8.30302 11.0756 8.26088 11.1996 8.25195 11.3278C8.24308 11.4562 8.26762 11.5849 8.32324 11.7009C9.09854 13.288 10.7392 14.9086 12.3311 15.6765C12.4476 15.7318 12.5764 15.7564 12.7051 15.7468C12.8338 15.7371 12.9584 15.694 13.0654 15.6218L15.4111 13.6257C15.5149 13.5566 15.6347 13.514 15.7588 13.5026C15.883 13.4913 16.0084 13.512 16.123 13.5612L20.5439 15.5417C20.6929 15.6054 20.8173 15.7159 20.8984 15.8561C20.9796 15.9964 21.0133 16.1591 20.9941 16.32C20.8485 17.4083 20.3128 18.4067 19.4863 19.1296C18.6596 19.8525 17.5982 20.2505 16.5 20.2497C13.1185 20.2497 9.87546 18.9064 7.48438 16.5153C5.09339 14.1242 3.75 10.8811 3.75 7.49969C3.74924 6.4017 4.14739 5.34094 4.87012 4.51434C5.59294 3.68772 6.59132 3.15126 7.67969 3.00555Z" fill="#003686"/>
</svg>
