<svg width="18" height="18" viewBox="0 0 18 18" fill="none" xmlns="http://www.w3.org/2000/svg">
<path d="M4.67969 0.00537109C4.84044 -0.0137266 5.00337 0.0201173 5.14355 0.101074C5.28376 0.182154 5.39431 0.306666 5.45801 0.455566L7.43945 4.88037C7.48812 4.99402 7.50787 5.11854 7.49707 5.2417C7.48626 5.36477 7.44459 5.48304 7.37695 5.58643L5.37402 7.96924C5.303 8.07645 5.26082 8.20032 5.25195 8.32861C5.24314 8.45675 5.26775 8.58485 5.32324 8.70068C6.09855 10.2879 7.73918 11.9094 9.33105 12.6772C9.44755 12.7325 9.57649 12.7562 9.70508 12.7466C9.83381 12.7369 9.95844 12.6938 10.0654 12.6216L12.4111 10.6255C12.5149 10.5564 12.6347 10.5148 12.7588 10.5034C12.883 10.4921 13.0084 10.5118 13.123 10.561L17.5439 12.5425C17.6928 12.6061 17.8173 12.7159 17.8984 12.856C17.9795 12.9961 18.0132 13.159 17.9941 13.3198C17.8485 14.4083 17.313 15.4075 16.4863 16.1304C15.6596 16.8533 14.5982 17.2513 13.5 17.2505C10.1186 17.2505 6.87545 15.9071 4.48438 13.5161C2.09337 11.1251 0.750089 7.88188 0.75 4.50049C0.74916 3.4023 1.14723 2.34086 1.87012 1.51416C2.59295 0.687526 3.59131 0.151073 4.67969 0.00537109Z" fill="white"/>
</svg>
