<svg width="24" height="24" viewBox="0 0 24 24" fill="none" xmlns="http://www.w3.org/2000/svg">
<path d="M6.83594 3.01105C7.15716 2.97182 7.48286 3.03771 7.76367 3.19855C8.04445 3.35938 8.26584 3.60674 8.39453 3.90363L10.3789 8.32745V8.33917C10.4762 8.56648 10.5157 8.81453 10.4941 9.06085C10.4725 9.30708 10.3902 9.54445 10.2549 9.75128C10.2381 9.77644 10.2208 9.80023 10.2021 9.82355L8.25391 12.14C8.95614 13.5668 10.449 15.0482 11.8945 15.7503L14.1758 13.805C14.1982 13.7862 14.2217 13.7684 14.2461 13.7523C14.4535 13.6139 14.6922 13.5291 14.9404 13.5062C15.1887 13.4832 15.4397 13.5233 15.6689 13.6214L15.6807 13.6263L20.0977 15.6058C20.3942 15.7346 20.6412 15.956 20.8018 16.2366C20.9624 16.5173 21.0284 16.8424 20.9893 17.1634C20.8221 18.4337 20.1975 19.6007 19.2334 20.4446C18.2694 21.2884 17.0311 21.7526 15.75 21.7503C8.30634 21.7503 2.25012 15.6939 2.25 8.25031C2.2477 6.96902 2.71168 5.72999 3.55566 4.76593C4.39957 3.80204 5.56578 3.17826 6.83594 3.01105ZM13.6943 6.7757C15.4904 7.25575 16.7446 8.50986 17.2246 10.306C17.2501 10.4011 17.257 10.5003 17.2441 10.598C17.2313 10.6956 17.1987 10.79 17.1494 10.8753C17.1002 10.9604 17.035 11.0352 16.957 11.095C16.8789 11.1549 16.7894 11.1994 16.6943 11.2249C16.631 11.2416 16.5655 11.2501 16.5 11.2503C16.3349 11.2503 16.174 11.1955 16.043 11.095C15.9121 10.9945 15.8181 10.8531 15.7754 10.6937C15.4303 9.4011 14.5993 8.56988 13.3066 8.22491C13.1145 8.17354 12.9511 8.04746 12.8516 7.87531C12.7521 7.70327 12.7242 7.49897 12.7754 7.30695C12.8267 7.11476 12.9528 6.95049 13.125 6.85089C13.2972 6.75129 13.5021 6.72435 13.6943 6.7757ZM14.4443 3.7757C15.8346 4.13849 17.1032 4.86518 18.1191 5.88116C19.1351 6.89719 19.8619 8.16567 20.2246 9.55597C20.2501 9.65107 20.257 9.75034 20.2441 9.84796C20.2313 9.94565 20.1987 10.04 20.1494 10.1253C20.1002 10.2104 20.035 10.2852 19.957 10.345C19.8789 10.4049 19.7894 10.4494 19.6943 10.4749C19.631 10.4916 19.5655 10.5001 19.5 10.5003C19.3349 10.5003 19.174 10.4455 19.043 10.345C18.9121 10.2445 18.8181 10.1031 18.7754 9.94366C18.4796 8.80865 17.8859 7.77313 17.0566 6.94366C16.2273 6.1142 15.1917 5.52083 14.0566 5.22491C13.9615 5.19957 13.8721 5.15582 13.7939 5.09601C13.7157 5.03609 13.65 4.96064 13.6006 4.87531C13.5513 4.79004 13.5188 4.6956 13.5059 4.59796C13.493 4.50035 13.4999 4.40107 13.5254 4.30597C13.5508 4.21085 13.5944 4.12142 13.6543 4.04327C13.7143 3.96509 13.7897 3.89919 13.875 3.84991C13.9602 3.80075 14.0548 3.76901 14.1523 3.75616C14.2499 3.74337 14.3493 3.75021 14.4443 3.7757Z" fill="#0053CD"/>
</svg>
