<svg width="80" height="80" viewBox="0 0 80 80" fill="none" xmlns="http://www.w3.org/2000/svg">
<g id="icon_step02-primary">
<g id="Group">
<g id="Mask group">
<mask id="mask0_10220_632" style="mask-type:luminance" maskUnits="userSpaceOnUse" x="8" y="8" width="64" height="64">
<g id="Group_2">
<path id="Vector" d="M8.06 72V8.04004H72V72H8.06Z" fill="white"/>
</g>
</mask>
<g mask="url(#mask0_10220_632)">
<path id="Vector_2" fill-rule="evenodd" clip-rule="evenodd" d="M72 40C72 57.673 57.673 72 40 72C22.327 72 8 57.673 8 40C8 22.327 22.327 8 40 8C57.673 8 72 22.327 72 40Z" fill="#30D5C8"/>
</g>
</g>
<path id="Vector_3" fill-rule="evenodd" clip-rule="evenodd" d="M51.96 60.0001C51.187 60.0001 50.314 59.6281 49.612 58.9261L39.378 48.6921C39.82 48.4211 40.288 48.1031 40.784 47.7341L46.077 53.0271L48.155 50.9491L52.312 46.7921L53.209 45.8951L57.926 50.6131C59.098 51.7841 59.35 53.4321 58.489 54.2931L53.293 59.4891C52.947 59.8341 52.476 60.0001 51.96 60.0001ZM33.308 42.6221L26.51 35.8241L22.182 23.1821L30.956 26.1861L27.174 29.9681L36.149 38.9421L28.589 31.3821L26.51 33.4601L34.267 41.2161C33.897 41.7121 33.579 42.1801 33.308 42.6221ZM40.313 34.7921L32.097 26.5771L33.063 26.9081L32.746 27.2251L40.313 34.7921Z" fill="#24B3A8"/>
<path id="Vector_4" fill-rule="evenodd" clip-rule="evenodd" d="M45.37 52.32C44.198 51.148 43.946 49.501 44.807 48.64L50.003 43.444C50.864 42.583 52.512 42.834 53.683 44.006L57.926 48.249C59.098 49.42 59.35 51.068 58.489 51.929L53.293 57.125C52.432 57.986 50.784 57.734 49.612 56.562L45.37 52.32Z" fill="#F7E17D"/>
<path id="Vector_5" fill-rule="evenodd" clip-rule="evenodd" d="M32.746 27.225L34.824 25.147L54.391 44.713L52.312 46.792L32.746 27.225ZM27.174 29.968L31.331 25.811L52.312 46.792L48.155 50.949L27.174 29.968Z" fill="#1D7AFC"/>
<path id="Vector_6" fill-rule="evenodd" clip-rule="evenodd" d="M26.51 33.4601L28.589 31.3821L48.155 50.9491L46.077 53.0271L26.51 33.4601Z" fill="#1D7AFC"/>
<path id="Vector_7" fill-rule="evenodd" clip-rule="evenodd" d="M22.182 20.8181L23.625 25.0321L26.396 22.2611L22.182 20.8181Z" fill="#4C5665"/>
<path id="Vector_8" fill-rule="evenodd" clip-rule="evenodd" d="M34.824 25.147L26.396 22.261L23.625 25.032L26.51 33.46L27.549 32.421L30.003 32.796L29.253 27.889L34.16 28.639L33.785 26.186L34.824 25.147Z" fill="#FEF7D7"/>
<path id="Vector_9" fill-rule="evenodd" clip-rule="evenodd" d="M26.336 58.7391C23.548 58.7381 21.052 58.0421 20 56.9901C23 55.0001 23.733 52.2061 24.495 49.9751C24.89 48.8141 25.42 47.7411 26.388 46.7731C27.739 45.4221 29.717 44.6581 31.628 44.6581C31.854 44.6581 32.079 44.6691 32.302 44.6911C32.512 44.0711 32.84 43.3851 33.308 42.6221L39.378 48.6921C38.61 49.1641 37.919 49.4931 37.296 49.7031C37.4332 51.2228 37.111 52.7486 36.371 54.0831C36.0622 54.6432 35.6772 55.1578 35.227 55.6121C32.981 57.8581 29.473 58.7391 26.336 58.7391Z" fill="#24B3A8"/>
<path id="Vector_10" fill-rule="evenodd" clip-rule="evenodd" d="M39.378 48.6921L33.308 42.6221C33.579 42.1801 33.897 41.7121 34.267 41.2161L40.784 47.7341C40.288 48.1031 39.82 48.4211 39.378 48.6921Z" fill="#24B3A8"/>
<path id="Vector_11" fill-rule="evenodd" clip-rule="evenodd" d="M49.159 39.4811L42.519 32.8411C48.089 28.0791 54.419 23.8401 56.985 23.8401C57.367 23.8401 57.665 23.9341 57.865 24.1341C59.41 25.6791 54.629 33.0821 49.159 39.4811Z" fill="#24B3A8"/>
<path id="Vector_12" fill-rule="evenodd" clip-rule="evenodd" d="M47.208 41.6881L40.313 34.7921C41.037 34.129 41.7725 33.4786 42.519 32.8411L49.159 39.4811C48.5209 40.2275 47.8705 40.9633 47.208 41.6881Z" fill="#0F4FA8"/>
<path id="Vector_13" fill-rule="evenodd" clip-rule="evenodd" d="M43.058 45.851L36.149 38.942C36.7463 38.2819 37.3605 37.6374 37.991 37.009C38.721 36.278 39.501 35.535 40.313 34.792L47.208 41.688C46.4859 42.4777 45.7468 43.2515 44.991 44.009C44.3626 44.6395 43.7181 45.2537 43.058 45.851Z" fill="#0F4FA8"/>
<path id="Vector_14" fill-rule="evenodd" clip-rule="evenodd" d="M40.784 47.7341L34.267 41.2161C34.8587 40.4293 35.4867 39.6705 36.149 38.9421L43.058 45.8511C42.3293 46.5134 41.5705 47.1418 40.784 47.7341Z" fill="#0F4FA8"/>
<path id="Vector_15" fill-rule="evenodd" clip-rule="evenodd" d="M37.991 35.0092C31.157 41.8432 31.184 44.9502 33.117 46.8832C35.05 48.8162 38.157 48.8432 44.991 42.0092C51.825 35.1752 59.798 24.0682 57.865 22.1352C55.932 20.2022 44.825 28.1752 37.991 35.0092Z" fill="white"/>
<path id="Vector_16" fill-rule="evenodd" clip-rule="evenodd" d="M20 54.9901C22.236 57.2261 30.984 57.8541 35.227 53.6121C35.6772 53.1578 36.0622 52.6432 36.371 52.0831C29.734 51.8851 26.226 49.6751 24.495 47.9751C23.733 50.2061 23 53.0001 20 54.9901Z" fill="#F7E17D"/>
<path id="Vector_17" fill-rule="evenodd" clip-rule="evenodd" d="M35.757 44.2429C33.317 41.8019 28.829 42.3319 26.388 44.7729C25.42 45.7409 24.89 46.8139 24.495 47.9749C26.226 49.6749 29.625 54.9169 36.371 52.0829C37.761 49.5899 37.75 46.2349 35.757 44.2429Z" fill="#4C5665"/>
<path id="Vector_18" fill-rule="evenodd" clip-rule="evenodd" d="M24.495 47.9751C24.495 47.9751 28.516 47.2111 30.433 50.0341C32.35 52.8571 36.371 52.0831 36.371 52.0831L31.167 54.9581L25.958 51.1671L24.495 47.9751Z" fill="#F7E17D"/>
</g>
</g>
</svg>
