<svg width="80" height="80" viewBox="0 0 80 80" fill="none" xmlns="http://www.w3.org/2000/svg">
<g id="Frame 1261170232">
<g id="Page-1">
<g id="chat">
<g id="Group-3">
<g id="Mask group">
<mask id="mask0_10198_3226" style="mask-type:luminance" maskUnits="userSpaceOnUse" x="8" y="8" width="64" height="64">
<g id="Group">
<path id="Vector" d="M8.06 72V8.04004H72V72H8.06Z" fill="white"/>
</g>
</mask>
<g mask="url(#mask0_10198_3226)">
<path id="Fill-1" fill-rule="evenodd" clip-rule="evenodd" d="M72 40C72 57.673 57.673 72 40 72C22.327 72 8 57.673 8 40C8 22.327 22.327 8 40 8C57.673 8 72 22.327 72 40Z" fill="#30D5C8"/>
</g>
</g>
</g>
<path id="Fill-4" fill-rule="evenodd" clip-rule="evenodd" d="M40 64C40 64 39.463 61.597 38.775 57.944C28.303 57.372 20 49.569 20 40C20 30.059 28.954 22 40 22C51.046 22 60 30.059 60 40C60 46.795 55.814 52.706 49.639 55.77C45.045 60.956 40 64 40 64Z" fill="#24B3A8"/>
<path id="Fill-5" fill-rule="evenodd" clip-rule="evenodd" d="M57 36.8C57 51.763 40 62 40 62C40 62 30.611 20 40 20C49.389 20 57 27.522 57 36.8Z" fill="#FFFFFE"/>
<path id="Fill-6" fill-rule="evenodd" clip-rule="evenodd" d="M60 38C60 47.941 51.046 56 40 56C28.954 56 20 47.941 20 38C20 28.059 28.954 20 40 20C51.046 20 60 28.059 60 38Z" fill="#FFFFFE"/>
<path id="Fill-7" fill-rule="evenodd" clip-rule="evenodd" d="M42 38C42.006 37.7337 41.9588 37.4689 41.861 37.221C41.7633 36.9732 41.617 36.7474 41.4308 36.5569C41.2446 36.3664 41.0222 36.215 40.7767 36.1116C40.5311 36.0082 40.2674 35.9549 40.001 35.9548C39.7346 35.9548 39.4709 36.0079 39.2253 36.1112C38.9797 36.2145 38.7572 36.3657 38.5709 36.5562C38.3846 36.7466 38.2382 36.9723 38.1404 37.2201C38.0425 37.4679 37.9951 37.7327 38.001 37.9991C38.0126 38.5216 38.2282 39.0189 38.6018 39.3844C38.9755 39.75 39.4773 39.9547 40 39.9548C40.5227 39.955 41.0247 39.7505 41.3985 39.3851C41.7723 39.0198 41.9882 38.5226 42 38Z" fill="#4C5665"/>
<path id="Fill-8" fill-rule="evenodd" clip-rule="evenodd" d="M50 38C50.006 37.7337 49.9588 37.4689 49.861 37.221C49.7633 36.9732 49.617 36.7474 49.4308 36.5569C49.2446 36.3664 49.0222 36.215 48.7766 36.1116C48.5311 36.0082 48.2674 35.9549 48.001 35.9548C47.7346 35.9548 47.4709 36.0079 47.2253 36.1112C46.9797 36.2145 46.7572 36.3657 46.5709 36.5562C46.3846 36.7466 46.2382 36.9723 46.1404 37.2201C46.0425 37.4679 45.9951 37.7327 46.001 37.9991C46.0125 38.5216 46.2282 39.0189 46.6018 39.3844C46.9754 39.75 47.4773 39.9547 48 39.9548C48.5227 39.955 49.0247 39.7505 49.3985 39.3851C49.7723 39.0198 49.9882 38.5226 50 38Z" fill="#4C5665"/>
<path id="Fill-9" fill-rule="evenodd" clip-rule="evenodd" d="M34 38C34.006 37.7337 33.9588 37.4689 33.861 37.221C33.7633 36.9732 33.617 36.7474 33.4308 36.5569C33.2446 36.3664 33.0222 36.215 32.7767 36.1116C32.5311 36.0082 32.2674 35.9549 32.001 35.9548C31.7346 35.9548 31.4709 36.0079 31.2253 36.1112C30.9797 36.2145 30.7572 36.3657 30.5709 36.5562C30.3846 36.7466 30.2382 36.9723 30.1404 37.2201C30.0425 37.4679 29.9951 37.7327 30.001 37.9991C30.0126 38.5216 30.2282 39.0189 30.6018 39.3844C30.9755 39.75 31.4773 39.9547 32 39.9548C32.5227 39.955 33.0247 39.7505 33.3985 39.3851C33.7723 39.0198 33.9882 38.5226 34 38Z" fill="#4C5665"/>
</g>
</g>
</g>
</svg>
