<svg width="80" height="80" viewBox="0 0 80 80" fill="none" xmlns="http://www.w3.org/2000/svg">
<g id="icon_step03-gray">
<g id="Group">
<g id="Mask group">
<mask id="mask0_10220_656" style="mask-type:luminance" maskUnits="userSpaceOnUse" x="8" y="8" width="64" height="64">
<g id="Group_2">
<path id="Vector" d="M8.06 72V8.04004H72V72H8.06Z" fill="white"/>
</g>
</mask>
<g mask="url(#mask0_10220_656)">
<path id="Vector_2" fill-rule="evenodd" clip-rule="evenodd" d="M72 40C72 57.673 57.673 72 40 72C22.327 72 8 57.673 8 40C8 22.327 22.327 8 40 8C57.673 8 72 22.327 72 40Z" fill="#30D5C8"/>
<g id="Group 12">
<path id="Vector_3" fill-rule="evenodd" clip-rule="evenodd" d="M53.7143 59.0001H26.2857C25.3764 59.0001 24.5043 58.6388 23.8613 57.9959C23.2184 57.3529 22.8571 56.4808 22.8571 55.5715V28.1429C22.8571 27.2336 23.2184 26.3615 23.8613 25.7186C24.5043 25.0756 25.3764 24.7144 26.2857 24.7144H53.7143C54.6236 24.7144 55.4957 25.0756 56.1386 25.7186C56.7816 26.3615 57.1429 27.2336 57.1429 28.1429V55.5715C57.1429 56.4808 56.7816 57.3529 56.1386 57.9959C55.4957 58.6388 54.6236 59.0001 53.7143 59.0001Z" fill="#24B3A8"/>
<path id="Vector_4" fill-rule="evenodd" clip-rule="evenodd" d="M26.2857 55.5715C25.3403 55.5715 24.5714 54.8026 24.5714 53.8572V26.4286C24.5714 25.4832 25.3403 24.7144 26.2857 24.7144H53.7143C54.6597 24.7144 55.4286 25.4832 55.4286 26.4286V53.8572C55.4286 54.8026 54.6597 55.5715 53.7143 55.5715H26.2857Z" fill="#86D6D0"/>
<path id="Vector_5" fill-rule="evenodd" clip-rule="evenodd" d="M53.7143 23H26.2857C25.3764 23 24.5043 23.3612 23.8613 24.0042C23.2184 24.6472 22.8571 25.5193 22.8571 26.4286V53.8571C22.8571 54.7665 23.2184 55.6385 23.8613 56.2815C24.5043 56.9245 25.3764 57.2857 26.2857 57.2857H53.7143C54.6236 57.2857 55.4957 56.9245 56.1386 56.2815C56.7816 55.6385 57.1429 54.7665 57.1429 53.8571V26.4286C57.1429 25.5193 56.7816 24.6472 56.1386 24.0042C55.4957 23.3612 54.6236 23 53.7143 23ZM26.2857 53.8571H53.7143V26.4286H26.2857V53.8571Z" fill="#FFFFFE"/>
<path id="Vector_6" fill-rule="evenodd" clip-rule="evenodd" d="M26.2857 53.857H53.7143V50.4285H26.2857V53.857Z" fill="#FFFFFE"/>
<path id="Vector_7" fill-rule="evenodd" clip-rule="evenodd" d="M24.5628 50.4288H54.4728V47.9251C54.4728 47.9251 53.0114 45.3734 51.6563 43.774C50.6483 42.5851 49.1431 42.2483 47.83 43.7097L45.4711 45.9751L40.3291 39.436C38.4143 37.0008 35.2806 37.0008 33.3657 39.436L24.5628 50.4288Z" fill="#4C5665"/>
<path id="Vector_8" fill-rule="evenodd" clip-rule="evenodd" d="M49.4286 33.2858C49.4286 33.9678 49.1576 34.6218 48.6754 35.1041C48.1932 35.5863 47.5391 35.8572 46.8571 35.8572C46.1751 35.8572 45.5211 35.5863 45.0389 35.1041C44.5566 34.6218 44.2857 33.9678 44.2857 33.2858C44.2857 32.6038 44.5566 31.9497 45.0389 31.4675C45.5211 30.9853 46.1751 30.7144 46.8571 30.7144C47.5391 30.7144 48.1932 30.9853 48.6754 31.4675C49.1576 31.9497 49.4286 32.6038 49.4286 33.2858Z" fill="#F7E17D"/>
<path id="Vector_9" fill-rule="evenodd" clip-rule="evenodd" d="M53.7143 23H26.2857C25.3764 23 24.5043 23.3612 23.8613 24.0042C23.2184 24.6472 22.8571 25.5193 22.8571 26.4286V53.8571C22.8571 54.7665 23.2184 55.6385 23.8613 56.2815C24.5043 56.9245 25.3764 57.2857 26.2857 57.2857H53.7143C54.6236 57.2857 55.4957 56.9245 56.1386 56.2815C56.7816 55.6385 57.1429 54.7665 57.1429 53.8571V26.4286C57.1429 25.5193 56.7816 24.6472 56.1386 24.0042C55.4957 23.3612 54.6236 23 53.7143 23ZM26.2857 53.8571H53.7143V26.4286H26.2857V53.8571Z" fill="#FFFFFE"/>
</g>
</g>
</g>
</g>
</g>
</svg>
