<svg width="24" height="24" viewBox="0 0 24 24" fill="none" xmlns="http://www.w3.org/2000/svg">
<path d="M16.5 3C17.2956 3 18.0585 3.3163 18.6211 3.87891C19.1837 4.44152 19.5 5.20435 19.5 6V15.75H20.25C20.4123 15.75 20.5704 15.803 20.7002 15.9004C20.8141 15.9822 21.75 16.7252 21.75 18C21.75 18.7956 21.4337 19.5585 20.8711 20.1211C20.3085 20.6837 19.5456 21 18.75 21H8.25C7.45435 21 6.69152 20.6837 6.12891 20.1211C5.5663 19.5585 5.25 18.7956 5.25 18V6C5.25 5.60218 5.09185 5.22076 4.81055 4.93945C4.52924 4.65815 4.14782 4.5 3.75 4.5C3.35218 4.5 2.97076 4.65815 2.68945 4.93945C2.40815 5.22076 2.25 5.60218 2.25 6C2.25 6.53813 2.70328 6.90156 2.70703 6.90625C2.83051 7.00172 2.9207 7.13379 2.96582 7.2832C3.0109 7.43284 3.00827 7.59324 2.95801 7.74121C2.90771 7.88921 2.8125 8.01818 2.68555 8.10938C2.55862 8.20052 2.40627 8.24957 2.25 8.25C2.0876 8.25076 1.92927 8.19765 1.7998 8.09961C1.6905 8.01779 0.75 7.27471 0.75 6C0.75 5.20435 1.0663 4.44152 1.62891 3.87891C2.19152 3.3163 2.95435 3 3.75 3H16.5ZM10.3867 17.25C10.4621 17.4928 10.5002 17.7457 10.5 18C10.5007 18.5267 10.3618 19.0443 10.0977 19.5H18.75C18.947 19.5002 19.1421 19.4619 19.3242 19.3867C19.5063 19.3115 19.6721 19.2007 19.8115 19.0615C19.951 18.9222 20.0622 18.7563 20.1377 18.5742C20.2131 18.3922 20.252 18.197 20.252 18C20.2426 17.7222 20.1354 17.4565 19.9492 17.25H10.3867ZM9.75 12C9.55109 12 9.36038 12.0791 9.21973 12.2197C9.07907 12.3604 9 12.5511 9 12.75C9 12.9489 9.07907 13.1396 9.21973 13.2803C9.36038 13.4209 9.55109 13.5 9.75 13.5H15.75C15.9489 13.5 16.1396 13.4209 16.2803 13.2803C16.4209 13.1396 16.5 12.9489 16.5 12.75C16.5 12.5511 16.4209 12.3604 16.2803 12.2197C16.1396 12.0791 15.9489 12 15.75 12H9.75ZM9.75 9C9.55109 9 9.36038 9.07907 9.21973 9.21973C9.07907 9.36038 9 9.55109 9 9.75C9 9.94891 9.07907 10.1396 9.21973 10.2803C9.36038 10.4209 9.55109 10.5 9.75 10.5H15.75C15.9489 10.5 16.1396 10.4209 16.2803 10.2803C16.4209 10.1396 16.5 9.94891 16.5 9.75C16.5 9.55109 16.4209 9.36038 16.2803 9.21973C16.1396 9.07907 15.9489 9 15.75 9H9.75Z" fill="#0053CD"/>
</svg>
