<svg width="24" height="24" viewBox="0 0 24 24" fill="none" xmlns="http://www.w3.org/2000/svg">
<path d="M12 1.5C12.9786 1.5 13.7136 2.20372 14.3604 2.8252C14.7297 3.17863 15.1116 3.5448 15.4453 3.68262C15.7518 3.81008 16.2599 3.8177 16.752 3.8252C17.667 3.83926 18.7039 3.85426 19.4248 4.5752C20.1457 5.29613 20.1607 6.33305 20.1748 7.24805C20.1823 7.74014 20.1899 8.24817 20.3174 8.55469C20.4552 8.88938 20.8214 9.27027 21.1748 9.63965C21.7963 10.2874 22.5 11.0214 22.5 12C22.5 12.9786 21.7963 13.7136 21.1748 14.3604C20.8214 14.7297 20.4552 15.1116 20.3174 15.4453C20.1899 15.7518 20.1823 16.2599 20.1748 16.752C20.1607 17.667 20.1457 18.7039 19.4248 19.4248C18.7039 20.1457 17.667 20.1607 16.752 20.1748C16.2599 20.1823 15.7518 20.1899 15.4453 20.3174C15.1106 20.4552 14.7297 20.8214 14.3604 21.1748C13.7126 21.7963 12.9786 22.5 12 22.5C11.0214 22.5 10.2864 21.7963 9.63965 21.1748C9.27027 20.8214 8.88844 20.4552 8.55469 20.3174C8.24817 20.1899 7.74014 20.1823 7.24805 20.1748C6.33305 20.1607 5.29613 20.1457 4.5752 19.4248C3.85426 18.7039 3.83926 17.667 3.8252 16.752C3.8177 16.2599 3.81008 15.7518 3.68262 15.4453C3.5448 15.1106 3.17863 14.7297 2.8252 14.3604C2.20372 13.7126 1.5 12.9786 1.5 12C1.5 11.0214 2.20372 10.2864 2.8252 9.63965C3.17863 9.27027 3.5448 8.88844 3.68262 8.55469C3.81008 8.24817 3.8177 7.74014 3.8252 7.24805C3.84395 6.33305 3.85426 5.29613 4.5752 4.5752C5.29613 3.85426 6.33305 3.83926 7.24805 3.8252C7.74014 3.8177 8.25004 3.81008 8.55469 3.68262C8.88938 3.5448 9.27027 3.17863 9.63965 2.8252C10.2874 2.20372 11.0214 1.5 12 1.5ZM15.75 9C15.6515 9 15.5539 9.01895 15.4629 9.05664C15.3718 9.09435 15.2894 9.15004 15.2197 9.21973L10.5 13.9395L8.78027 12.2197C8.63954 12.079 8.44902 12 8.25 12C8.05098 12 7.86046 12.079 7.71973 12.2197C7.579 12.3605 7.5 12.551 7.5 12.75C7.5 12.949 7.579 13.1395 7.71973 13.2803L9.96973 15.5303C10.0394 15.6 10.1218 15.6556 10.2129 15.6934C10.3039 15.7311 10.4015 15.751 10.5 15.751C10.5985 15.751 10.6961 15.7311 10.7871 15.6934C10.8782 15.6556 10.9606 15.6 11.0303 15.5303L16.2803 10.2803C16.35 10.2106 16.4056 10.1282 16.4434 10.0371C16.4811 9.94609 16.5 9.84852 16.5 9.75C16.5 9.65148 16.4811 9.55391 16.4434 9.46289C16.4056 9.37185 16.35 9.28941 16.2803 9.21973C16.2106 9.15004 16.1282 9.09435 16.0371 9.05664C15.9461 9.01895 15.8485 9 15.75 9Z" fill="#0053CD"/>
</svg>
