<svg width="24" height="24" viewBox="0 0 24 24" fill="none" xmlns="http://www.w3.org/2000/svg">
<path d="M19.5 3.75C19.8978 3.75 20.2792 3.90815 20.5605 4.18945C20.8419 4.47076 21 4.85218 21 5.25V10.5C21 15.4425 18.607 18.4376 16.6055 20.0801C14.4408 21.8481 12.293 22.4493 12.1992 22.4736C12.0704 22.5086 11.9344 22.5087 11.8057 22.4736C11.7079 22.4481 9.55915 21.8465 7.39941 20.0801C5.39228 18.4375 3 15.4423 3 10.5V5.25C3 4.85218 3.15815 4.47076 3.43945 4.18945C3.72076 3.90815 4.10218 3.75 4.5 3.75H19.5ZM12 5.25V12H4.58398C4.9093 14.8125 6.17188 17.1368 8.35156 18.9199C9.43894 19.8093 10.6738 20.5017 12 20.9648V12H19.416C19.4725 11.502 19.5003 11.0012 19.5 10.5V5.25H12Z" fill="#0053CD"/>
</svg>
